<?xml version="1.0" encoding="utf-8"?>
<!-- Generator: Adobe Illustrator 17.1.0, SVG Export Plug-In . SVG Version: 6.00 Build 0)  -->
<!DOCTYPE svg PUBLIC "-//W3C//DTD SVG 1.1//EN" "http://www.w3.org/Graphics/SVG/1.1/DTD/svg11.dtd">
<svg version="1.1" id="Layer_1" xmlns="http://www.w3.org/2000/svg" xmlns:xlink="http://www.w3.org/1999/xlink" x="0px" y="0px"
	 viewBox="23.8 -5.2 55.1 76.6" enable-background="new 23.8 -5.2 55.1 76.6" xml:space="preserve">
<g id="Captions">
	<text transform="matrix(1 0 0 1 78.8613 -17.0371)" font-family="'Helvetica'" font-size="1.7778">Sévag+Tina</text>
</g>
<line fill="none" stroke="#000000" stroke-width="0.25" stroke-miterlimit="10" x1="88.3" y1="-16.2" x2="78.9" y2="-16.2"/>
<g>
	<g>
		<path d="M58.8,5.2c0,4.2-3.4,7.5-7.5,7.5c-4.2,0-7.5-3.4-7.5-7.5c0-4.2,3.4-7.5,7.5-7.5C55.5-2.3,58.8,1.1,58.8,5.2z"/>
		<g>
			<path d="M77.7,3.8L60.1,21.5v46.2c0,2.1-1.7,3.8-3.8,3.8s-3.8-1.7-3.8-3.8V42.6c0-0.7-0.6-1.3-1.3-1.3c-0.7,0-1.3,0.6-1.3,1.3
				v25.1c0,2.1-1.7,3.8-3.8,3.8c-2.1,0-3.8-1.7-3.8-3.8V21.5L24.9,3.8c-1.5-1.5-1.5-3.9,0-5.3c1.5-1.5,3.9-1.5,5.3,0
				c0,0,9.1,9.3,12.3,12.3c1.8,1.7,5,4.4,8.8,4.4c3.8,0,7-2.8,8.8-4.4c3.2-3,12.3-12.3,12.3-12.3c1.5-1.5,3.9-1.5,5.3,0
				C79.2,0,79.2,2.4,77.7,3.8z"/>
		</g>
	</g>
</g>
<text transform="matrix(1 0 0 1 14.2592 84.4444)" font-family="'HelveticaNeue-Bold'" font-size="3.7037">Created by Tina Abi Hachem</text>
<text transform="matrix(1 0 0 1 14.2592 88.1484)" font-family="'HelveticaNeue-Bold'" font-size="3.7037">from the Noun Project</text>
</svg>
