<?xml version="1.0" encoding="utf-8"?>
<!-- Generator: Adobe Illustrator 17.1.0, SVG Export Plug-In . SVG Version: 6.00 Build 0)  -->
<!DOCTYPE svg PUBLIC "-//W3C//DTD SVG 1.1//EN" "http://www.w3.org/Graphics/SVG/1.1/DTD/svg11.dtd">
<svg version="1.1" id="Layer_1" xmlns="http://www.w3.org/2000/svg" xmlns:xlink="http://www.w3.org/1999/xlink" x="0px" y="0px"
	 viewBox="12.7 16.4 77 36" enable-background="new 12.7 16.4 77 36" xml:space="preserve">
<path d="M15.4,24.1h5.7c0.5,0,1-0.4,1-1l0,0v-5.7c0-0.5-0.4-1-1-1l0,0h-5.7c-0.5,0-1,0.4-1,1l0,0v5.7C14.4,23.7,14.9,24.1,15.4,24.1
	L15.4,24.1z"/>
<path d="M76.9,52.4h10.4c0.5,0,1-0.4,1-1l0,0v-5.7c0-0.5-0.4-1-1-1l0,0H76.9c-0.5,0-1,0.4-1,1l0,0v5.7
	C75.8,52.1,76.3,52.4,76.9,52.4L76.9,52.4z"/>
<path d="M73,52.4H29.4c-0.5,0-1-0.4-1-1l0,0v-5.7c0-0.5,0.4-1,1-1l0,0H73c0.5,0,1,0.4,1,1l0,0v5.7C74,52.1,73.5,52.4,73,52.4
	L73,52.4z"/>
<path d="M15.4,52.4h10.4c0.5,0,1-0.4,1-1l0,0v-5.7c0-0.5-0.4-1-1-1l0,0H15.4c-0.5,0-1,0.4-1,1l0,0v5.7
	C14.4,52.1,14.9,52.4,15.4,52.4L15.4,52.4z"/>
<path d="M15.4,33.6h9.5c0.5,0,1-0.4,1-1l0,0v-5.7c0-0.5-0.4-1-1-1l0,0h-9.5c-0.5,0-1,0.4-1,1l0,0v5.7C14.4,33.1,14.9,33.6,15.4,33.6
	L15.4,33.6z"/>
<path d="M75.8,33.6h11.3c0.5,0,1-0.4,1-1l0,0v-5.7c0-0.5-0.4-1-1-1l0,0H75.8c-0.5,0-1,0.4-1,1l0,0v5.7C75,33.1,75.4,33.6,75.8,33.6
	L75.8,33.6z"/>
<path d="M24.8,24.1h5.7c0.5,0,1-0.4,1-1l0,0v-5.7c0-0.5-0.4-1-1-1l0,0h-5.7c-0.5,0-1,0.4-1,1l0,0v5.7C23.9,23.7,24.3,24.1,24.8,24.1
	L24.8,24.1z"/>
<path d="M34.3,24.1H40c0.5,0,1-0.4,1-1l0,0v-5.7c0-0.5-0.4-1-1-1l0,0h-5.7c-0.5,0-1,0.4-1,1l0,0v5.7C33.3,23.7,33.7,24.1,34.3,24.1
	L34.3,24.1z"/>
<path d="M43.7,24.1h5.7c0.5,0,1-0.4,1-1l0,0v-5.7c0-0.5-0.4-1-1-1l0,0h-5.7c-0.5,0-1,0.4-1,1l0,0v5.7C42.8,23.7,43.1,24.1,43.7,24.1
	L43.7,24.1z"/>
<path d="M53.1,24.1h5.7c0.5,0,1-0.4,1-1l0,0v-5.7c0-0.5-0.4-1-1-1l0,0h-5.7c-0.5,0-1,0.4-1,1l0,0v5.7C52.3,23.7,52.6,24.1,53.1,24.1
	L53.1,24.1z"/>
<path d="M62.6,24.1h5.7c0.5,0,1-0.4,1-1l0,0v-5.7c0-0.5-0.4-1-1-1l0,0h-5.7c-0.5,0-1,0.4-1,1l0,0v5.7C61.7,23.7,62,24.1,62.6,24.1
	L62.6,24.1z"/>
<path d="M72,24.1h5.7c0.5,0,1-0.4,1-1l0,0v-5.7c0-0.5-0.4-1-1-1l0,0H72c-0.5,0-1,0.4-1,1l0,0v5.7C71.1,23.7,71.5,24.1,72,24.1
	L72,24.1z"/>
<path d="M81.5,24.1h5.7c0.5,0,1-0.4,1-1l0,0v-5.7c0-0.5-0.4-1-1-1l0,0h-5.7c-0.5,0-1,0.4-1,1l0,0v5.7C80.6,23.7,81,24.1,81.5,24.1
	L81.5,24.1z"/>
<path d="M28.6,33.6h5.7c0.5,0,1-0.4,1-1l0,0v-5.7c0-0.5-0.4-1-1-1l0,0h-5.7c-0.5,0-1,0.4-1,1l0,0v5.7C27.6,33.1,28,33.6,28.6,33.6
	L28.6,33.6z"/>
<path d="M38,33.6h5.7c0.5,0,1-0.4,1-1l0,0v-5.7c0-0.5-0.4-1-1-1l0,0H38c-0.5,0-1,0.4-1,1l0,0v5.7C37.1,33.1,37.4,33.6,38,33.6
	L38,33.6z"/>
<path d="M47.4,33.6h5.7c0.5,0,1-0.4,1-1l0,0v-5.7c0-0.5-0.4-1-1-1l0,0h-5.7c-0.5,0-1,0.4-1,1l0,0v5.7C46.5,33.1,47,33.6,47.4,33.6
	L47.4,33.6z"/>
<path d="M56.9,33.6h5.7c0.5,0,1-0.4,1-1l0,0v-5.7c0-0.5-0.4-1-1-1l0,0h-5.7c-0.5,0-1,0.4-1,1l0,0v5.7C56,33.1,56.5,33.6,56.9,33.6
	L56.9,33.6z"/>
<path d="M66.3,33.6H72c0.5,0,1-0.4,1-1l0,0v-5.7c0-0.5-0.4-1-1-1l0,0h-5.7c-0.5,0-1,0.4-1,1l0,0v5.7C65.4,33.1,65.8,33.6,66.3,33.6
	L66.3,33.6z"/>
<path d="M15.4,43h5.7c0.5,0,1-0.4,1-1l0,0v-5.7c0-0.5-0.4-1-1-1l0,0h-5.7c-0.5,0-1,0.4-1,1l0,0v5.7C14.4,42.6,14.9,43,15.4,43
	L15.4,43z"/>
<path d="M24.8,43h5.7c0.5,0,1-0.4,1-1l0,0v-5.7c0-0.5-0.4-1-1-1l0,0h-5.7c-0.5,0-1,0.4-1,1l0,0v5.7C23.9,42.6,24.3,43,24.8,43
	L24.8,43z"/>
<path d="M34.3,43H40c0.5,0,1-0.4,1-1l0,0v-5.7c0-0.5-0.4-1-1-1l0,0h-5.7c-0.5,0-1,0.4-1,1l0,0v5.7C33.3,42.6,33.7,43,34.3,43
	L34.3,43z"/>
<path d="M43.7,43h5.7c0.5,0,1-0.4,1-1l0,0v-5.7c0-0.5-0.4-1-1-1l0,0h-5.7c-0.5,0-1,0.4-1,1l0,0v5.7C42.8,42.6,43.1,43,43.7,43
	L43.7,43z"/>
<path d="M53.1,43h5.7c0.5,0,1-0.4,1-1l0,0v-5.7c0-0.5-0.4-1-1-1l0,0h-5.7c-0.5,0-1,0.4-1,1l0,0v5.7C52.3,42.6,52.6,43,53.1,43
	L53.1,43z"/>
<path d="M62.6,43h5.7c0.5,0,1-0.4,1-1l0,0v-5.7c0-0.5-0.4-1-1-1l0,0h-5.7c-0.5,0-1,0.4-1,1l0,0v5.7C61.7,42.6,62,43,62.6,43L62.6,43
	z"/>
<path d="M72,43h5.7c0.5,0,1-0.4,1-1l0,0v-5.7c0-0.5-0.4-1-1-1l0,0H72c-0.5,0-1,0.4-1,1l0,0v5.7C71.1,42.6,71.5,43,72,43L72,43z"/>
<path d="M81.5,43h5.7c0.5,0,1-0.4,1-1l0,0v-5.7c0-0.5-0.4-1-1-1l0,0h-5.7c-0.5,0-1,0.4-1,1l0,0v5.7C80.6,42.6,81,43,81.5,43L81.5,43
	z"/>
</svg>
