<svg viewBox="0 0 100 100">
<g id="Layer_2">
</g>
<g id="Layer_1">
	<path fill="#000000" d="M88.567,49.468c-0.221-0.583-0.779-0.968-1.402-0.968c-8.602,0-13.792-3.397-17.962-6.128   c-1.149-0.752-2.235-1.463-3.313-2.058c-3.385-1.867-6.587-2.814-9.517-2.814c-3.223,0-5.258,1.157-6.222,1.888l-2.037,1.237   l-2.108-1.243c-0.968-0.731-3-1.882-6.214-1.882c-2.93,0-6.132,0.947-9.517,2.814c-1.078,0.595-2.164,1.306-3.313,2.058   C22.792,45.103,17.602,48.5,9,48.5c-0.623,0-1.182,0.385-1.402,0.968s-0.059,1.242,0.408,1.655   c0.1,0.089,10.066,8.941,13.911,14.709c5.634,8.45,15.349,13.552,26.011,13.667C47.952,79.5,47.976,79.5,48,79.5h0.165   c0.007,0,0.014,0,0.02,0c0.026,0,0.053,0,0.078-0.002c10.652-0.123,20.356-5.223,25.985-13.666   c3.845-5.768,13.812-14.62,13.911-14.709C88.626,50.71,88.788,50.051,88.567,49.468z M24.521,52.857   c0.071-0.237,0.304-0.389,0.55-0.352c0.699,0.1,1.448,0.151,2.227,0.151c2.482,0,4.976-0.497,7.387-0.977   c2.168-0.432,4.215-0.84,6.057-0.84c1.383,0,2.522,0.233,3.483,0.714L48,53.441l3.776-1.888c0.961-0.48,2.101-0.714,3.483-0.714   c1.842,0,3.889,0.408,6.057,0.84c2.411,0.48,4.904,0.977,7.387,0.977c0.789,0,1.518-0.049,2.227-0.151   c0.246-0.033,0.479,0.115,0.55,0.352c0.07,0.237-0.043,0.49-0.267,0.596C71.097,53.507,59.615,58.915,56.3,61.4   c-4.086,3.065-8.13,3.1-8.3,3.1s-4.214-0.035-8.3-3.1c-3.315-2.486-14.797-7.893-14.913-7.947   C24.563,53.347,24.45,53.094,24.521,52.857z M48,78c0.027,0,0.055-0.002,0.082-0.002S48.138,78,48.165,78H48z"/>
	<circle cx="75.5" cy="32.5" r="2.5"/>
</g>
</svg>