<svg viewBox="3.6 -7.2 72.0 97.2" >
<g>
	<path fill="#000000" d="M25.721,27.57c1.855-3.55,5.707-6.095,6.048-9.041l0.253-11.421c0-0.091-0.004-0.181-0.013-0.266   l0.009-0.229c0.044-0.916-0.68-1.459-1.501-1.599c-0.153-0.031-0.306-0.042-0.464-0.034c-0.885,0.013-1.742,0.488-1.787,1.461   l-0.178,3.824l-0.334,7.163c0,0-0.096,1.312-0.359,1.805l-4.398,3.39c-0.267,0.163-0.55,0.321-0.845,0.477l-5.184,0.004   c-0.3-0.16-0.59-0.325-0.864-0.488l-4.398-3.394c-0.263-0.493-0.359-1.804-0.359-1.804l-0.337-7.163l-0.176-3.824   c-0.043-0.975-0.906-1.449-1.79-1.463C8.891,4.962,8.732,4.972,8.583,5.007C7.758,5.143,7.038,5.687,7.08,6.606l0.01,0.226   c-0.007,0.084-0.01,0.174-0.01,0.27l0.252,11.417c0.341,2.946,4.188,5.492,6.048,9.046l0.263,0.916l0.428,5.266l-2.424,12.439   l2.529,1.334v19.433c0,3.815,4.395,3.815,4.395,0l-0.002-17.578h1.783v17.609c0,3.763,4.371,3.784,4.371,0V47.52l2.529-1.334   l-2.283-11.721l0.471-5.82L25.721,27.57z"/>
	<path fill="#000000" d="M19.454,22.238c2.625,0,4.75-2.127,4.75-4.75c0-2.625-2.125-4.755-4.75-4.755   c-2.625,0-4.753,2.129-4.753,4.755C14.7,20.11,16.828,22.238,19.454,22.238z"/>
</g>
</svg>